<svg width="55" height="30" viewBox="0 0 55 30" fill="none" xmlns="http://www.w3.org/2000/svg">
<path d="M0 0H2V30H0V0Z" fill="#FEFBF6"/>
<path d="M12.3172 11.3636L9.49334 19H8.30016L5.4763 11.3636H6.74902L8.85698 17.4489H8.93652L11.0445 11.3636H12.3172ZM16.6947 19.1591C16.0053 19.1591 15.4004 18.995 14.8801 18.6669C14.363 18.3388 13.9587 17.8797 13.667 17.2898C13.3786 16.6998 13.2345 16.0104 13.2345 15.2216C13.2345 14.4261 13.3786 13.7318 13.667 13.1385C13.9587 12.5452 14.363 12.0845 14.8801 11.7564C15.4004 11.4283 16.0053 11.2642 16.6947 11.2642C17.3841 11.2642 17.9873 11.4283 18.5044 11.7564C19.0247 12.0845 19.4291 12.5452 19.7174 13.1385C20.0091 13.7318 20.1549 14.4261 20.1549 15.2216C20.1549 16.0104 20.0091 16.6998 19.7174 17.2898C19.4291 17.8797 19.0247 18.3388 18.5044 18.6669C17.9873 18.995 17.3841 19.1591 16.6947 19.1591ZM16.6947 18.1051C17.2184 18.1051 17.6492 17.9709 17.9873 17.7024C18.3254 17.4339 18.5756 17.081 18.738 16.6435C18.9004 16.206 18.9816 15.732 18.9816 15.2216C18.9816 14.7112 18.9004 14.2356 18.738 13.7947C18.5756 13.3539 18.3254 12.9976 17.9873 12.7259C17.6492 12.4541 17.2184 12.3182 16.6947 12.3182C16.171 12.3182 15.7401 12.4541 15.4021 12.7259C15.064 12.9976 14.8138 13.3539 14.6514 13.7947C14.489 14.2356 14.4078 14.7112 14.4078 15.2216C14.4078 15.732 14.489 16.206 14.6514 16.6435C14.8138 17.081 15.064 17.4339 15.4021 17.7024C15.7401 17.9709 16.171 18.1051 16.6947 18.1051ZM21.9459 19V11.3636H23.1192V19H21.9459ZM22.5425 10.0909C22.3138 10.0909 22.1166 10.013 21.9509 9.85724C21.7885 9.70147 21.7073 9.5142 21.7073 9.29545C21.7073 9.0767 21.7885 8.88944 21.9509 8.73366C22.1166 8.57789 22.3138 8.5 22.5425 8.5C22.7712 8.5 22.9668 8.57789 23.1292 8.73366C23.2949 8.88944 23.3778 9.0767 23.3778 9.29545C23.3778 9.5142 23.2949 9.70147 23.1292 9.85724C22.9668 10.013 22.7712 10.0909 22.5425 10.0909ZM28.3705 19.1591C27.6546 19.1591 27.0381 18.9901 26.521 18.652C26.004 18.3139 25.6063 17.8482 25.3279 17.255C25.0494 16.6617 24.9102 15.9839 24.9102 15.2216C24.9102 14.446 25.0528 13.7616 25.3378 13.1683C25.6262 12.5717 26.0272 12.1061 26.5409 11.7713C27.058 11.4332 27.6612 11.2642 28.3506 11.2642C28.8875 11.2642 29.3714 11.3636 29.8023 11.5625C30.2332 11.7614 30.5861 12.0398 30.8612 12.3977C31.1363 12.7557 31.307 13.1733 31.3733 13.6506H30.2C30.1105 13.3026 29.9117 12.9943 29.6034 12.7259C29.2985 12.4541 28.8875 12.3182 28.3705 12.3182C27.9131 12.3182 27.512 12.4375 27.1673 12.6761C26.826 12.9115 26.5592 13.2446 26.3669 13.6754C26.178 14.103 26.0835 14.6051 26.0835 15.1818C26.0835 15.7718 26.1763 16.2855 26.3619 16.723C26.5509 17.1605 26.816 17.5002 27.1574 17.7422C27.5021 17.9841 27.9065 18.1051 28.3705 18.1051C28.6754 18.1051 28.9521 18.0521 29.2007 17.946C29.4493 17.84 29.6598 17.6875 29.8321 17.4886C30.0045 17.2898 30.1271 17.0511 30.2 16.7727H31.3733C31.307 17.2235 31.143 17.6295 30.8811 17.9908C30.6226 18.3487 30.2796 18.6338 29.852 18.8459C29.4278 19.0547 28.9339 19.1591 28.3705 19.1591ZM36.2902 19.1591C35.5544 19.1591 34.9197 18.9967 34.3861 18.6719C33.8558 18.3438 33.4465 17.8864 33.1581 17.2997C32.8731 16.7098 32.7306 16.0237 32.7306 15.2415C32.7306 14.4593 32.8731 13.7699 33.1581 13.1733C33.4465 12.5734 33.8475 12.1061 34.3612 11.7713C34.8783 11.4332 35.4815 11.2642 36.1709 11.2642C36.5686 11.2642 36.9614 11.3305 37.3492 11.4631C37.7369 11.5956 38.0899 11.8111 38.4081 12.1094C38.7263 12.4044 38.9798 12.7955 39.1688 13.2827C39.3577 13.7699 39.4521 14.3698 39.4521 15.0824V15.5795H33.5658V14.5653H38.259C38.259 14.1345 38.1728 13.75 38.0004 13.4119C37.8314 13.0739 37.5895 12.8071 37.2746 12.6115C36.963 12.416 36.5951 12.3182 36.1709 12.3182C35.7036 12.3182 35.2992 12.4342 34.9578 12.6662C34.6198 12.8949 34.3596 13.1932 34.1773 13.5611C33.995 13.929 33.9039 14.3234 33.9039 14.7443V15.4205C33.9039 15.9972 34.0033 16.486 34.2021 16.8871C34.4043 17.2848 34.6844 17.5881 35.0423 17.7969C35.4003 18.0024 35.8163 18.1051 36.2902 18.1051C36.5985 18.1051 36.8769 18.062 37.1254 17.9759C37.3773 17.8864 37.5944 17.7538 37.7767 17.5781C37.959 17.3991 38.0999 17.1771 38.1993 16.9119L39.3328 17.2301C39.2135 17.6146 39.013 17.9527 38.7313 18.2443C38.4495 18.5327 38.1015 18.758 37.6872 18.9205C37.2729 19.0795 36.8073 19.1591 36.2902 19.1591ZM44.6375 11.3636V12.358H40.521V11.3636H44.6375ZM41.754 19V10.3097C41.754 9.87216 41.8567 9.50758 42.0622 9.21591C42.2677 8.92424 42.5345 8.70549 42.8627 8.55966C43.1908 8.41383 43.5371 8.34091 43.9017 8.34091C44.1901 8.34091 44.4254 8.36411 44.6077 8.41051C44.79 8.45691 44.9259 8.5 45.0154 8.53977L44.6773 9.55398C44.6176 9.53409 44.5348 9.50923 44.4287 9.4794C44.326 9.44957 44.1901 9.43466 44.021 9.43466C43.6333 9.43466 43.3532 9.53243 43.1808 9.72798C43.0118 9.92353 42.9273 10.2102 42.9273 10.5881V19H41.754ZM47.0376 21.8636C46.8387 21.8636 46.6614 21.8471 46.5056 21.8139C46.3498 21.7841 46.2421 21.7543 46.1824 21.7244L46.4807 20.6903C46.7658 20.7633 47.0177 20.7898 47.2364 20.7699C47.4552 20.75 47.6491 20.6522 47.8181 20.4766C47.9904 20.3042 48.1479 20.0241 48.2904 19.6364L48.5091 19.0398L45.6853 11.3636H46.958L49.066 17.4489H49.1455L51.2535 11.3636H52.5262L49.2847 20.1136C49.1389 20.508 48.9582 20.8345 48.7428 21.093C48.5274 21.3549 48.2771 21.5488 47.9921 21.6747C47.7104 21.8007 47.3922 21.8636 47.0376 21.8636Z" fill="#B67352"/>
</svg>
